# xmcd CD database file
#
# Track frame offsets:
#	150
#	11102
#	21616
#	32921
#	44291
#	58823
#	68817
#	78827
#	92722
#	102836
#	111849
#	120964
#	134032
#	147635
#	158407
#	170805
#	181225
#
# Disc length: 2538 seconds
#
# Revision: 0
# Processed by: cddbd v1.5.2PL0 Copyright (c) Steve Scherf et al.
# Submitted via: ACXtractor (MTCDDB.DLL V2003.07.15)
#
DISCID=ee09e811
DTITLE=Dave Dudley  - Six Days on the Road
DYEAR=1998
DGENRE=Country
TTITLE0=White Line Fever
TTITLE1=A Tombstone Every Mile
TTITLE2=A Trucker's Prayer
TTITLE3=Cowboy Boots
TTITLE4=Driver
TTITLE5=East Bound and Down
TTITLE6=Freight Line Fever
TTITLE7=George and the Northwoods
TTITLE8=How fast Them Trucks can Go
TTITLE9=John Henry
TTITLE10=Keep on Truckin
TTITLE11=Me and the Ol' CB
TTITLE12=Movin' On
TTITLE13=One More Mile
TTITLE14=There Ain't No Easy Runs
TTITLE15=Two Six Packs Away
TTITLE16=Dudleyville Brandy
EXTD=ID3G:   2 YEAR: 1998
EXTT0=
EXTT1=
EXTT2=
EXTT3=
EXTT4=
EXTT5=
EXTT6=
EXTT7=
EXTT8=
EXTT9=
EXTT10=
EXTT11=
EXTT12=
EXTT13=
EXTT14=
EXTT15=
EXTT16=
PLAYORDER=
